<?xml version="1.0" encoding="UTF-8"?>
<svg viewBox="0 0 48 48" xmlns="http://www.w3.org/2000/svg">
<defs>
<linearGradient id="a" x1="102.11" x2="588.88" y1="-72.018" y2="-72.018" gradientTransform="matrix(.0020544 0 0 .0015373 -.20977 .61071)">
<stop stop-color="#ecbd52" offset="0"/>
<stop stop-color="#efb126" offset="1"/>
</linearGradient>
</defs>
<g transform="matrix(.73629 0 0 .74452 376.98 381.19)">
<g transform="matrix(.096394 0 0 .094568 -520.41 -472.82)">
<path transform="translate(350.63 -79.986)" d="m-263.39-309.25 27.97 543.92c0.36461 26.116 30.918 33.141 49.044 22.322l116.13-92.739 107.82 166.14c13.426 19.342 26.939 20.215 40.285 12.426 0 0 122.44-81.758 122.44-81.758 12.738-8.6888 16.77-17.444 5.7834-35.473l-102.04-160.25 137.68-60.304c16.764-7.7591 16.083-42.556 2.7611-50.438l-242.78-149.2s-15.198 12.864-32.813 4.5751c-17.627-8.2943-11.726-32.426-11.726-32.426l-183.48-109.66c-10.474-6.2036-37.073 0.25047-37.073 22.854z"/>
</g>
<g transform="matrix(.096394 0 0 .094568 -520.41 -472.82)">
<path transform="matrix(.9 0 0 .9 350.63 -79.986)" d="m-276.13-332.54 27.04 580.87c0.36461 26.116 21.604 28.93 39.729 18.111l132.53-106.04 127.32 194.01c13.426 19.342 17.34 18.431 30.687 10.643l126.27-81.442c12.738-8.6888 16.463-12.349 5.4756-30.378l-119.45-186.81 159.71-64.815c16.764-7.7591 13.824-36.903 0.50177-44.785l-250.37-156.23s-20.576 15.355-46.25 1.6026c-22.872-12.251-21.297-40.752-21.297-40.752l-188.44-110.48c-10.474-6.2036-23.447-6.1138-23.447 16.49z" fill="url(#a)"/>
</g>
</g>
<g transform="matrix(.73629 0 0 .74452 376.98 381.19)">
<g transform="matrix(.096394 0 0 .094568 -487.04 -479.76)">
<path d="m-115.45-50.059c28.2 0 51.107 22.437 51.107 50.059s-22.907 50.059-51.107 50.059c-28.2 0-51.107-22.437-51.107-50.059 0-15.562 7.2712-29.479 18.663-38.664 8.8283-7.118 20.131-11.395 32.444-11.395z" fill="#de9f35"/>
<path transform="matrix(1.2207 0 0 1.2116 -87.392 136.49)" d="m8.4736-85.969c5.8894-5.9257 10.818-18.641 9.8989-29.555-2.0911-24.832-19.678-38.734-45.31-38.734-13.285 0-24.714 10.619-31.765 19.861 2.361-0.64143 24.606-14.648 50.102 2.5864 24.28 16.412 17.074 45.841 17.074 45.841z" fill="#c9822d"/>
</g>
<g transform="matrix(.096394 0 0 .094568 -487.04 -479.76)">
<g transform="matrix(.83138 0 0 .79478 72.279 -113.38)">
<path d="m-115.45-50.059c28.2 0 51.107 22.437 51.107 50.059s-22.907 50.059-51.107 50.059c-28.2 0-51.107-22.437-51.107-50.059 0-15.562 7.2712-29.479 18.663-38.664 8.8283-7.118 20.131-11.395 32.444-11.395z" fill="#de9f35"/>
</g>
<g transform="matrix(.83138 0 0 .79478 72.279 -113.38)">
<path transform="matrix(1.2207 0 0 1.2116 -87.392 136.49)" d="m8.4736-85.969c5.8894-5.9257 10.818-18.641 9.8989-29.555-2.0911-24.832-19.678-38.734-45.31-38.734-13.285 0-24.714 10.619-31.765 19.861 2.361-0.64143 24.606-14.648 50.102 2.5864 24.28 16.412 17.074 45.841 17.074 45.841z" fill="#c9822d"/>
</g>
</g>
<g transform="matrix(.096394 0 0 .094568 -487.04 -479.76)">
<g transform="matrix(.5234 0 0 .53685 -99.525 -223.65)">
<path d="m-115.45-50.059c28.2 0 51.107 22.437 51.107 50.059s-22.907 50.059-51.107 50.059c-28.2 0-51.107-22.437-51.107-50.059 0-15.562 7.2712-29.479 18.663-38.664 8.8283-7.118 20.131-11.395 32.444-11.395z" fill="#de9f35"/>
</g>
<g transform="matrix(.5234 0 0 .53685 -99.525 -223.65)">
<path transform="matrix(1.2207 0 0 1.2116 -87.392 136.49)" d="m8.4736-85.969c5.8894-5.9257 10.818-18.641 9.8989-29.555-2.0911-24.832-19.678-38.734-45.31-38.734-13.285 0-24.714 10.619-31.765 19.861 2.361-0.64143 24.606-14.648 50.102 2.5864 24.28 16.412 17.074 45.841 17.074 45.841z" fill="#c9822d"/>
</g>
</g>
<g transform="matrix(.096394 0 0 .094568 -487.04 -479.76)">
<g transform="matrix(.40761 0 0 .41675 -115.31 -118.06)">
<path d="m-115.45-50.059c28.2 0 51.107 22.437 51.107 50.059s-22.907 50.059-51.107 50.059c-28.2 0-51.107-22.437-51.107-50.059 0-15.562 7.2712-29.479 18.663-38.664 8.8283-7.118 20.131-11.395 32.444-11.395z" fill="#de9f35"/>
</g>
<g transform="matrix(.40761 0 0 .41675 -115.31 -118.06)">
<path transform="matrix(1.2207 0 0 1.2116 -87.392 136.49)" d="m8.4736-85.969c5.8894-5.9257 10.818-18.641 9.8989-29.555-2.0911-24.832-19.678-38.734-45.31-38.734-13.285 0-24.714 10.619-31.765 19.861 2.361-0.64143 24.606-14.648 50.102 2.5864 24.28 16.412 17.074 45.841 17.074 45.841z" fill="#c9822d"/>
</g>
</g>
<g transform="matrix(.096394 0 0 .094568 -487.04 -479.76)">
<g transform="matrix(.2545 0 0 .24189 39.005 -20.495)">
<path d="m-115.45-50.059c28.2 0 51.107 22.437 51.107 50.059s-22.907 50.059-51.107 50.059c-28.2 0-51.107-22.437-51.107-50.059 0-15.562 7.2712-29.479 18.663-38.664 8.8283-7.118 20.131-11.395 32.444-11.395z" fill="#de9f35"/>
</g>
<g transform="matrix(.2545 0 0 .24189 39.005 -20.495)">
<path transform="matrix(1.2207 0 0 1.2116 -87.392 136.49)" d="m8.4736-85.969c5.8894-5.9257 10.818-18.641 9.8989-29.555-2.0911-24.832-19.678-38.734-45.31-38.734-13.285 0-24.714 10.619-31.765 19.861 2.361-0.64143 24.606-14.648 50.102 2.5864 24.28 16.412 17.074 45.841 17.074 45.841z" fill="#c9822d"/>
</g>
</g>
<g transform="matrix(.096394 0 0 .094568 -487.04 -479.76)">
<g transform="matrix(.46784 0 0 .45426 157.8 -49.394)">
<path d="m-115.45-50.059c28.2 0 51.107 22.437 51.107 50.059s-22.907 50.059-51.107 50.059c-28.2 0-51.107-22.437-51.107-50.059 0-15.562 7.2712-29.479 18.663-38.664 8.8283-7.118 20.131-11.395 32.444-11.395z" fill="#de9f35"/>
</g>
<g transform="matrix(.46784 0 0 .45426 157.8 -49.394)">
<path transform="matrix(1.2207 0 0 1.2116 -87.392 136.49)" d="m8.4736-85.969c5.8894-5.9257 10.818-18.641 9.8989-29.555-2.0911-24.832-19.678-38.734-45.31-38.734-13.285 0-24.714 10.619-31.765 19.861 2.361-0.64143 24.606-14.648 50.102 2.5864 24.28 16.412 17.074 45.841 17.074 45.841z" fill="#c9822d"/>
</g>
</g>
<g transform="matrix(.096394 0 0 .094568 -487.04 -479.76)">
<g transform="matrix(.32046 0 0 .32516 56.989 110.52)">
<path d="m-115.45-50.059c28.2 0 51.107 22.437 51.107 50.059s-22.907 50.059-51.107 50.059c-28.2 0-51.107-22.437-51.107-50.059 0-15.562 7.2712-29.479 18.663-38.664 8.8283-7.118 20.131-11.395 32.444-11.395z" fill="#de9f35"/>
</g>
<g transform="matrix(.32046 0 0 .32516 56.989 110.52)">
<path transform="matrix(1.2207 0 0 1.2116 -87.392 136.49)" d="m8.4736-85.969c5.8894-5.9257 10.818-18.641 9.8989-29.555-2.0911-24.832-19.678-38.734-45.31-38.734-13.285 0-24.714 10.619-31.765 19.861 2.361-0.64143 24.606-14.648 50.102 2.5864 24.28 16.412 17.074 45.841 17.074 45.841z" fill="#c9822d"/>
</g>
</g>
<g transform="matrix(.096394 0 0 .094568 -487.04 -479.76)">
<g transform="matrix(.26894 0 0 .27126 118.93 159.21)">
<path d="m-115.45-50.059c28.2 0 51.107 22.437 51.107 50.059s-22.907 50.059-51.107 50.059c-28.2 0-51.107-22.437-51.107-50.059 0-15.562 7.2712-29.479 18.663-38.664 8.8283-7.118 20.131-11.395 32.444-11.395z" fill="#de9f35"/>
</g>
<g transform="matrix(.26894 0 0 .27126 118.93 159.21)">
<path transform="matrix(1.2207 0 0 1.2116 -87.392 136.49)" d="m8.4736-85.969c5.8894-5.9257 10.818-18.641 9.8989-29.555-2.0911-24.832-19.678-38.734-45.31-38.734-13.285 0-24.714 10.619-31.765 19.861 2.361-0.64143 24.606-14.648 50.102 2.5864 24.28 16.412 17.074 45.841 17.074 45.841z" fill="#c9822d"/>
</g>
</g>
</g>
<g transform="matrix(.73629 0 0 .74452 376.98 381.19)">
<g transform="matrix(.096394 0 0 .094568 -487.04 -479.76)">
<path d="m-238.42-322.16 55.046 397.41s18.283 2.235 21.401 20.284c4.2523 24.611-15.121 31.979-15.121 31.979l7.1802 53.098c3.7636 7.6327 2.8872 11.931 15.473 7.4669l90.744-78.076c9.7575-9.0557 17.582-3.3318 20.091 0.61805l71.666 108.57s17.829 2.9946 23.885 12.988c10.385 17.138 0 29.578 0 29.578s34.969 54.215 34.969 54.215c-16.334 11.394-22.393 15.258-31.443 3.8377l-118.65-179.76-122.51 99.324c-16.235 8.1669-33.478-3.5747-33.998-22.42 0 0-24.335-523.15-24.335-523.15 0-13.227 5.5944-15.963 5.5944-15.963z" fill="#d59333"/>
</g>
<g transform="matrix(.096394 0 0 .094568 -487.04 -479.76)">
<path d="m74.02 28.342 14.597 24.9 143.74-58.334c8.9983-5.8141 8.9983-10.39 8.9983-10.39l-167.33 43.824z" fill="#d59333"/>
</g>
</g>
</svg>
